<mxfile host="app.diagrams.net" modified="2020-12-10T10:01:20.327Z" agent="5.0 (X11; Linux x86_64) AppleWebKit/537.36 (KHTML, like Gecko) Chrome/87.0.4280.66 Safari/537.36" etag="9UzNqGKixqnuhOMJWyYN" version="14.0.0" type="github">
  <diagram id="E9eVKeKwsIIePYfuzSH1" name="Page-1">
    <mxGraphModel dx="1588" dy="876" grid="1" gridSize="10" guides="1" tooltips="1" connect="1" arrows="1" fold="1" page="1" pageScale="1" pageWidth="827" pageHeight="1169" math="0" shadow="0">
      <root>
        <mxCell id="0" />
        <mxCell id="1" parent="0" />
        <mxCell id="0zrNOvpAkK2AncdlTujS-1" style="edgeStyle=orthogonalEdgeStyle;rounded=0;orthogonalLoop=1;jettySize=auto;html=1;entryX=0;entryY=0.25;entryDx=0;entryDy=0;entryPerimeter=0;endArrow=none;endFill=0;" parent="1" source="0zrNOvpAkK2AncdlTujS-2" target="0zrNOvpAkK2AncdlTujS-14" edge="1">
          <mxGeometry relative="1" as="geometry" />
        </mxCell>
        <mxCell id="0zrNOvpAkK2AncdlTujS-2" value="" style="rounded=0;whiteSpace=wrap;html=1;" parent="1" vertex="1">
          <mxGeometry x="180.17000000000002" y="150" width="320" height="40" as="geometry" />
        </mxCell>
        <mxCell id="0zrNOvpAkK2AncdlTujS-3" value="" style="endArrow=none;html=1;" parent="1" edge="1">
          <mxGeometry width="50" height="50" relative="1" as="geometry">
            <mxPoint x="220.17000000000002" y="190" as="sourcePoint" />
            <mxPoint x="220.17000000000002" y="150" as="targetPoint" />
          </mxGeometry>
        </mxCell>
        <mxCell id="0zrNOvpAkK2AncdlTujS-4" value="" style="endArrow=none;html=1;" parent="1" edge="1">
          <mxGeometry width="50" height="50" relative="1" as="geometry">
            <mxPoint x="260.17" y="190" as="sourcePoint" />
            <mxPoint x="260.17" y="150" as="targetPoint" />
          </mxGeometry>
        </mxCell>
        <mxCell id="0zrNOvpAkK2AncdlTujS-5" value="" style="endArrow=none;html=1;" parent="1" edge="1">
          <mxGeometry width="50" height="50" relative="1" as="geometry">
            <mxPoint x="300.17" y="190" as="sourcePoint" />
            <mxPoint x="300.17" y="150" as="targetPoint" />
          </mxGeometry>
        </mxCell>
        <mxCell id="0zrNOvpAkK2AncdlTujS-6" value="" style="endArrow=none;html=1;" parent="1" edge="1">
          <mxGeometry width="50" height="50" relative="1" as="geometry">
            <mxPoint x="340.17" y="190" as="sourcePoint" />
            <mxPoint x="340.17" y="150" as="targetPoint" />
          </mxGeometry>
        </mxCell>
        <mxCell id="0zrNOvpAkK2AncdlTujS-7" value="" style="endArrow=none;html=1;" parent="1" edge="1">
          <mxGeometry width="50" height="50" relative="1" as="geometry">
            <mxPoint x="379.6" y="190" as="sourcePoint" />
            <mxPoint x="379.6" y="150" as="targetPoint" />
          </mxGeometry>
        </mxCell>
        <mxCell id="0zrNOvpAkK2AncdlTujS-8" value="" style="endArrow=none;html=1;" parent="1" edge="1">
          <mxGeometry width="50" height="50" relative="1" as="geometry">
            <mxPoint x="419.6" y="190" as="sourcePoint" />
            <mxPoint x="419.6" y="150" as="targetPoint" />
          </mxGeometry>
        </mxCell>
        <mxCell id="0zrNOvpAkK2AncdlTujS-9" value="" style="endArrow=none;html=1;" parent="1" edge="1">
          <mxGeometry width="50" height="50" relative="1" as="geometry">
            <mxPoint x="459.6" y="190" as="sourcePoint" />
            <mxPoint x="459.6" y="150" as="targetPoint" />
          </mxGeometry>
        </mxCell>
        <mxCell id="0zrNOvpAkK2AncdlTujS-10" value="" style="triangle;whiteSpace=wrap;html=1;rotation=-90;" parent="1" vertex="1">
          <mxGeometry x="492.67" y="182.5" width="5" height="10" as="geometry" />
        </mxCell>
        <mxCell id="0zrNOvpAkK2AncdlTujS-11" value="" style="endArrow=none;html=1;strokeWidth=2;endFill=0;" parent="1" source="0zrNOvpAkK2AncdlTujS-33" edge="1">
          <mxGeometry width="50" height="50" relative="1" as="geometry">
            <mxPoint x="60" y="250" as="sourcePoint" />
            <mxPoint x="340.17" y="190" as="targetPoint" />
            <Array as="points">
              <mxPoint x="340" y="250" />
            </Array>
          </mxGeometry>
        </mxCell>
        <mxCell id="0zrNOvpAkK2AncdlTujS-12" value="" style="shape=xor;whiteSpace=wrap;html=1;" parent="1" vertex="1">
          <mxGeometry x="700.17" y="230" width="30" height="40" as="geometry" />
        </mxCell>
        <mxCell id="0zrNOvpAkK2AncdlTujS-13" style="edgeStyle=orthogonalEdgeStyle;rounded=0;orthogonalLoop=1;jettySize=auto;html=1;entryX=0.175;entryY=0.25;entryDx=0;entryDy=0;entryPerimeter=0;endArrow=none;endFill=0;" parent="1" source="0zrNOvpAkK2AncdlTujS-14" target="0zrNOvpAkK2AncdlTujS-12" edge="1">
          <mxGeometry relative="1" as="geometry" />
        </mxCell>
        <mxCell id="0zrNOvpAkK2AncdlTujS-14" value="" style="shape=or;whiteSpace=wrap;html=1;" parent="1" vertex="1">
          <mxGeometry x="580.1700000000001" y="190" width="30" height="40" as="geometry" />
        </mxCell>
        <mxCell id="0zrNOvpAkK2AncdlTujS-15" value="" style="endArrow=oval;html=1;endFill=1;" parent="1" edge="1">
          <mxGeometry width="50" height="50" relative="1" as="geometry">
            <mxPoint x="544.1700000000001" y="219.85999999999999" as="sourcePoint" />
            <mxPoint x="580.1700000000001" y="220.14999999999998" as="targetPoint" />
            <Array as="points">
              <mxPoint x="570.1700000000001" y="220.14999999999998" />
            </Array>
          </mxGeometry>
        </mxCell>
        <mxCell id="0zrNOvpAkK2AncdlTujS-16" value="force 0" style="edgeLabel;html=1;align=center;verticalAlign=middle;resizable=0;points=[];" parent="0zrNOvpAkK2AncdlTujS-15" vertex="1" connectable="0">
          <mxGeometry x="-0.0244" y="1" relative="1" as="geometry">
            <mxPoint x="-21.63" y="0.94" as="offset" />
          </mxGeometry>
        </mxCell>
        <mxCell id="0zrNOvpAkK2AncdlTujS-17" value="" style="endArrow=none;html=1;entryX=0.175;entryY=0.75;entryDx=0;entryDy=0;entryPerimeter=0;endFill=0;" parent="1" target="0zrNOvpAkK2AncdlTujS-12" edge="1">
          <mxGeometry width="50" height="50" relative="1" as="geometry">
            <mxPoint x="660.17" y="260" as="sourcePoint" />
            <mxPoint x="700.17" y="260" as="targetPoint" />
          </mxGeometry>
        </mxCell>
        <mxCell id="0zrNOvpAkK2AncdlTujS-18" value="force 1" style="edgeLabel;html=1;align=center;verticalAlign=middle;resizable=0;points=[];" parent="0zrNOvpAkK2AncdlTujS-17" vertex="1" connectable="0">
          <mxGeometry x="-0.4465" relative="1" as="geometry">
            <mxPoint as="offset" />
          </mxGeometry>
        </mxCell>
        <mxCell id="0zrNOvpAkK2AncdlTujS-19" value="" style="endArrow=none;html=1;endFill=0;" parent="1" target="0zrNOvpAkK2AncdlTujS-32" edge="1">
          <mxGeometry width="50" height="50" relative="1" as="geometry">
            <mxPoint x="730.17" y="250" as="sourcePoint" />
            <mxPoint x="780.17" y="250" as="targetPoint" />
          </mxGeometry>
        </mxCell>
        <mxCell id="0zrNOvpAkK2AncdlTujS-20" value="COUNTER_TXEMPTY" style="rounded=0;whiteSpace=wrap;html=1;" parent="1" vertex="1">
          <mxGeometry x="290.17" y="70" width="120" height="40" as="geometry" />
        </mxCell>
        <mxCell id="0zrNOvpAkK2AncdlTujS-21" style="edgeStyle=orthogonalEdgeStyle;rounded=0;orthogonalLoop=1;jettySize=auto;html=1;exitX=1;exitY=0.25;exitDx=0;exitDy=0;endArrow=none;endFill=0;entryX=0;entryY=0.5;entryDx=0;entryDy=0;" parent="1" source="0zrNOvpAkK2AncdlTujS-20" target="0zrNOvpAkK2AncdlTujS-40" edge="1">
          <mxGeometry relative="1" as="geometry">
            <mxPoint x="468.17" y="80" as="targetPoint" />
            <mxPoint x="377.67" y="70" as="sourcePoint" />
            <Array as="points">
              <mxPoint x="410" y="90" />
            </Array>
          </mxGeometry>
        </mxCell>
        <mxCell id="0zrNOvpAkK2AncdlTujS-22" value="count_en" style="edgeLabel;html=1;align=center;verticalAlign=middle;resizable=0;points=[];" parent="0zrNOvpAkK2AncdlTujS-21" vertex="1" connectable="0">
          <mxGeometry x="-0.2957" y="-1" relative="1" as="geometry">
            <mxPoint x="38.57" y="9" as="offset" />
          </mxGeometry>
        </mxCell>
        <mxCell id="0zrNOvpAkK2AncdlTujS-23" value="" style="endArrow=none;html=1;entryX=0;entryY=0.25;entryDx=0;entryDy=0;" parent="1" target="0zrNOvpAkK2AncdlTujS-2" edge="1">
          <mxGeometry width="50" height="50" relative="1" as="geometry">
            <mxPoint x="130.17000000000002" y="160" as="sourcePoint" />
            <mxPoint x="240.17000000000002" y="220" as="targetPoint" />
          </mxGeometry>
        </mxCell>
        <mxCell id="0zrNOvpAkK2AncdlTujS-24" value="sh_en" style="edgeLabel;html=1;align=center;verticalAlign=middle;resizable=0;points=[];" parent="0zrNOvpAkK2AncdlTujS-23" vertex="1" connectable="0">
          <mxGeometry x="0.1629" y="3" relative="1" as="geometry">
            <mxPoint x="-39.14" as="offset" />
          </mxGeometry>
        </mxCell>
        <mxCell id="0zrNOvpAkK2AncdlTujS-25" value="" style="endArrow=none;html=1;" parent="1" edge="1">
          <mxGeometry width="50" height="50" relative="1" as="geometry">
            <mxPoint x="120.17" y="178" as="sourcePoint" />
            <mxPoint x="180.17000000000002" y="178" as="targetPoint" />
            <Array as="points" />
          </mxGeometry>
        </mxCell>
        <mxCell id="0zrNOvpAkK2AncdlTujS-26" value="ld_en" style="edgeLabel;html=1;align=center;verticalAlign=middle;resizable=0;points=[];" parent="0zrNOvpAkK2AncdlTujS-25" vertex="1" connectable="0">
          <mxGeometry x="-0.4619" y="-2" relative="1" as="geometry">
            <mxPoint x="-16.17" as="offset" />
          </mxGeometry>
        </mxCell>
        <mxCell id="0zrNOvpAkK2AncdlTujS-27" value="" style="endArrow=none;html=1;exitX=1;exitY=0.5;exitDx=0;exitDy=0;" parent="1" source="0zrNOvpAkK2AncdlTujS-30" edge="1">
          <mxGeometry width="50" height="50" relative="1" as="geometry">
            <mxPoint x="247.67000000000002" y="80" as="sourcePoint" />
            <mxPoint x="288.17" y="88" as="targetPoint" />
            <Array as="points" />
          </mxGeometry>
        </mxCell>
        <mxCell id="0zrNOvpAkK2AncdlTujS-28" value="TC" style="edgeLabel;html=1;align=center;verticalAlign=middle;resizable=0;points=[];" parent="0zrNOvpAkK2AncdlTujS-27" vertex="1" connectable="0">
          <mxGeometry x="0.2531" y="2" relative="1" as="geometry">
            <mxPoint x="-12.28" y="2.18" as="offset" />
          </mxGeometry>
        </mxCell>
        <mxCell id="0zrNOvpAkK2AncdlTujS-29" style="edgeStyle=none;rounded=0;orthogonalLoop=1;jettySize=auto;html=1;" parent="1" source="0zrNOvpAkK2AncdlTujS-30" edge="1">
          <mxGeometry relative="1" as="geometry">
            <mxPoint x="150" y="88.13" as="targetPoint" />
          </mxGeometry>
        </mxCell>
        <mxCell id="0zrNOvpAkK2AncdlTujS-30" value="= 7" style="rounded=0;whiteSpace=wrap;html=1;" parent="1" vertex="1">
          <mxGeometry x="180.17000000000002" y="78.13" width="40" height="20" as="geometry" />
        </mxCell>
        <mxCell id="0zrNOvpAkK2AncdlTujS-31" value="" style="triangle;whiteSpace=wrap;html=1;rotation=-90;" parent="1" vertex="1">
          <mxGeometry x="398.3" y="98.13" width="8.75" height="15" as="geometry" />
        </mxCell>
        <mxCell id="0zrNOvpAkK2AncdlTujS-32" value="Sout" style="text;html=1;align=center;verticalAlign=middle;resizable=0;points=[];autosize=1;" parent="1" vertex="1">
          <mxGeometry x="930" y="240" width="40" height="20" as="geometry" />
        </mxCell>
        <mxCell id="0zrNOvpAkK2AncdlTujS-33" value="Pin" style="text;html=1;align=center;verticalAlign=middle;resizable=0;points=[];autosize=1;" parent="1" vertex="1">
          <mxGeometry y="240" width="30" height="20" as="geometry" />
        </mxCell>
        <mxCell id="0zrNOvpAkK2AncdlTujS-35" value="COUNTER" style="rounded=0;whiteSpace=wrap;html=1;" parent="1" vertex="1">
          <mxGeometry x="670" y="70" width="120" height="40" as="geometry" />
        </mxCell>
        <mxCell id="0zrNOvpAkK2AncdlTujS-36" style="edgeStyle=orthogonalEdgeStyle;rounded=0;orthogonalLoop=1;jettySize=auto;html=1;exitX=1;exitY=0.25;exitDx=0;exitDy=0;endArrow=none;endFill=0;" parent="1" source="0zrNOvpAkK2AncdlTujS-35" edge="1">
          <mxGeometry relative="1" as="geometry">
            <mxPoint x="848" y="80" as="targetPoint" />
            <mxPoint x="757.5" y="70" as="sourcePoint" />
            <Array as="points">
              <mxPoint x="847.5" y="80" />
            </Array>
          </mxGeometry>
        </mxCell>
        <mxCell id="0zrNOvpAkK2AncdlTujS-37" value="count_en =1" style="edgeLabel;html=1;align=center;verticalAlign=middle;resizable=0;points=[];" parent="0zrNOvpAkK2AncdlTujS-36" vertex="1" connectable="0">
          <mxGeometry x="-0.2957" y="-1" relative="1" as="geometry">
            <mxPoint x="49" y="-2.87" as="offset" />
          </mxGeometry>
        </mxCell>
        <mxCell id="0zrNOvpAkK2AncdlTujS-38" value="" style="endArrow=none;html=1;exitX=1;exitY=0.5;exitDx=0;exitDy=0;entryX=0;entryY=0.5;entryDx=0;entryDy=0;" parent="1" source="0zrNOvpAkK2AncdlTujS-40" target="0zrNOvpAkK2AncdlTujS-35" edge="1">
          <mxGeometry width="50" height="50" relative="1" as="geometry">
            <mxPoint x="627.5" y="80" as="sourcePoint" />
            <mxPoint x="668" y="88" as="targetPoint" />
            <Array as="points" />
          </mxGeometry>
        </mxCell>
        <mxCell id="0zrNOvpAkK2AncdlTujS-39" value="TC" style="edgeLabel;html=1;align=center;verticalAlign=middle;resizable=0;points=[];" parent="0zrNOvpAkK2AncdlTujS-38" vertex="1" connectable="0">
          <mxGeometry x="0.2531" y="2" relative="1" as="geometry">
            <mxPoint x="-3.889999999999999" y="2" as="offset" />
          </mxGeometry>
        </mxCell>
        <mxCell id="0zrNOvpAkK2AncdlTujS-40" value="= 139" style="rounded=0;whiteSpace=wrap;html=1;" parent="1" vertex="1">
          <mxGeometry x="560" y="80" width="40" height="20" as="geometry" />
        </mxCell>
        <mxCell id="0zrNOvpAkK2AncdlTujS-41" value="" style="triangle;whiteSpace=wrap;html=1;rotation=-90;" parent="1" vertex="1">
          <mxGeometry x="778.13" y="98.13" width="8.75" height="15" as="geometry" />
        </mxCell>
        <mxCell id="0zrNOvpAkK2AncdlTujS-42" value="" style="endArrow=classic;html=1;" parent="1" edge="1">
          <mxGeometry width="50" height="50" relative="1" as="geometry">
            <mxPoint x="530" y="90" as="sourcePoint" />
            <mxPoint x="530" y="60" as="targetPoint" />
          </mxGeometry>
        </mxCell>
        <mxCell id="0zrNOvpAkK2AncdlTujS-43" value="term_count" style="text;html=1;align=center;verticalAlign=middle;resizable=0;points=[];autosize=1;" parent="1" vertex="1">
          <mxGeometry x="492.67" y="40" width="80" height="20" as="geometry" />
        </mxCell>
        <mxCell id="0zrNOvpAkK2AncdlTujS-46" value="&lt;font style=&quot;font-size: 9px&quot;&gt;TX_EMPTY&lt;/font&gt;" style="rounded=0;whiteSpace=wrap;html=1;rotation=90;" parent="1" vertex="1">
          <mxGeometry x="100" y="60" width="60" height="30" as="geometry" />
        </mxCell>
        <mxCell id="0zrNOvpAkK2AncdlTujS-47" value="" style="triangle;whiteSpace=wrap;html=1;rotation=-90;" parent="1" vertex="1">
          <mxGeometry x="137.5" y="97.5" width="5" height="7" as="geometry" />
        </mxCell>
        <mxCell id="8gKwvPRi9Bl_LgLOaigl-1" value="TX CONTROL UNIT" style="rounded=0;whiteSpace=wrap;html=1;" vertex="1" parent="1">
          <mxGeometry x="170" y="320" width="120" height="200" as="geometry" />
        </mxCell>
        <mxCell id="8gKwvPRi9Bl_LgLOaigl-2" value="" style="endArrow=classic;html=1;entryX=0;entryY=0.25;entryDx=0;entryDy=0;" edge="1" parent="1" target="8gKwvPRi9Bl_LgLOaigl-1">
          <mxGeometry width="50" height="50" relative="1" as="geometry">
            <mxPoint x="80" y="370" as="sourcePoint" />
            <mxPoint x="120" y="330" as="targetPoint" />
          </mxGeometry>
        </mxCell>
        <mxCell id="8gKwvPRi9Bl_LgLOaigl-3" value="tx_empty" style="edgeLabel;html=1;align=center;verticalAlign=middle;resizable=0;points=[];" vertex="1" connectable="0" parent="8gKwvPRi9Bl_LgLOaigl-2">
          <mxGeometry x="0.2444" y="1" relative="1" as="geometry">
            <mxPoint x="-16" as="offset" />
          </mxGeometry>
        </mxCell>
        <mxCell id="8gKwvPRi9Bl_LgLOaigl-4" value="" style="endArrow=classic;html=1;entryX=0;entryY=0.25;entryDx=0;entryDy=0;" edge="1" parent="1">
          <mxGeometry width="50" height="50" relative="1" as="geometry">
            <mxPoint x="80" y="400" as="sourcePoint" />
            <mxPoint x="170" y="400" as="targetPoint" />
          </mxGeometry>
        </mxCell>
        <mxCell id="8gKwvPRi9Bl_LgLOaigl-5" value="term_count" style="edgeLabel;html=1;align=center;verticalAlign=middle;resizable=0;points=[];" vertex="1" connectable="0" parent="8gKwvPRi9Bl_LgLOaigl-4">
          <mxGeometry x="0.2444" y="1" relative="1" as="geometry">
            <mxPoint x="-16" y="1" as="offset" />
          </mxGeometry>
        </mxCell>
        <mxCell id="8gKwvPRi9Bl_LgLOaigl-6" value="" style="endArrow=classic;html=1;exitX=1;exitY=0.25;exitDx=0;exitDy=0;" edge="1" parent="1" source="8gKwvPRi9Bl_LgLOaigl-1">
          <mxGeometry width="50" height="50" relative="1" as="geometry">
            <mxPoint x="290" y="360" as="sourcePoint" />
            <mxPoint x="380" y="370" as="targetPoint" />
          </mxGeometry>
        </mxCell>
        <mxCell id="8gKwvPRi9Bl_LgLOaigl-7" value="sh_en" style="edgeLabel;html=1;align=center;verticalAlign=middle;resizable=0;points=[];" vertex="1" connectable="0" parent="8gKwvPRi9Bl_LgLOaigl-6">
          <mxGeometry x="0.2444" y="1" relative="1" as="geometry">
            <mxPoint x="-16" y="1" as="offset" />
          </mxGeometry>
        </mxCell>
        <mxCell id="8gKwvPRi9Bl_LgLOaigl-8" value="" style="endArrow=classic;html=1;entryX=0;entryY=0.25;entryDx=0;entryDy=0;" edge="1" parent="1">
          <mxGeometry width="50" height="50" relative="1" as="geometry">
            <mxPoint x="290" y="400" as="sourcePoint" />
            <mxPoint x="380" y="400" as="targetPoint" />
          </mxGeometry>
        </mxCell>
        <mxCell id="8gKwvPRi9Bl_LgLOaigl-9" value="ld_en" style="edgeLabel;html=1;align=center;verticalAlign=middle;resizable=0;points=[];" vertex="1" connectable="0" parent="8gKwvPRi9Bl_LgLOaigl-8">
          <mxGeometry x="0.2444" y="1" relative="1" as="geometry">
            <mxPoint x="-16" as="offset" />
          </mxGeometry>
        </mxCell>
        <mxCell id="8gKwvPRi9Bl_LgLOaigl-10" value="" style="endArrow=classic;html=1;entryX=0;entryY=0.25;entryDx=0;entryDy=0;" edge="1" parent="1">
          <mxGeometry width="50" height="50" relative="1" as="geometry">
            <mxPoint x="290.17" y="430" as="sourcePoint" />
            <mxPoint x="380.17" y="430" as="targetPoint" />
          </mxGeometry>
        </mxCell>
        <mxCell id="8gKwvPRi9Bl_LgLOaigl-11" value="tx_empty_en" style="edgeLabel;html=1;align=center;verticalAlign=middle;resizable=0;points=[];direction=south;" vertex="1" connectable="0" parent="8gKwvPRi9Bl_LgLOaigl-10">
          <mxGeometry x="0.2444" y="1" relative="1" as="geometry">
            <mxPoint x="-16" as="offset" />
          </mxGeometry>
        </mxCell>
        <mxCell id="8gKwvPRi9Bl_LgLOaigl-12" value="" style="endArrow=classic;html=1;entryX=0;entryY=0.25;entryDx=0;entryDy=0;" edge="1" parent="1">
          <mxGeometry width="50" height="50" relative="1" as="geometry">
            <mxPoint x="80" y="430" as="sourcePoint" />
            <mxPoint x="170" y="430" as="targetPoint" />
          </mxGeometry>
        </mxCell>
        <mxCell id="8gKwvPRi9Bl_LgLOaigl-13" value="tx_ack" style="edgeLabel;html=1;align=center;verticalAlign=middle;resizable=0;points=[];" vertex="1" connectable="0" parent="8gKwvPRi9Bl_LgLOaigl-12">
          <mxGeometry x="0.2444" y="1" relative="1" as="geometry">
            <mxPoint x="-16" as="offset" />
          </mxGeometry>
        </mxCell>
        <mxCell id="8gKwvPRi9Bl_LgLOaigl-14" value="" style="rounded=0;whiteSpace=wrap;html=1;fillColor=none;strokeWidth=4;" vertex="1" parent="1">
          <mxGeometry x="40" y="30" width="880" height="530" as="geometry" />
        </mxCell>
        <mxCell id="8gKwvPRi9Bl_LgLOaigl-15" value="" style="endArrow=none;html=1;strokeWidth=1;" edge="1" parent="1">
          <mxGeometry width="50" height="50" relative="1" as="geometry">
            <mxPoint x="335.17" y="210" as="sourcePoint" />
            <mxPoint x="345.17" y="200" as="targetPoint" />
          </mxGeometry>
        </mxCell>
        <mxCell id="8gKwvPRi9Bl_LgLOaigl-16" value="8" style="text;html=1;align=center;verticalAlign=middle;resizable=0;points=[];autosize=1;" vertex="1" parent="1">
          <mxGeometry x="340.17" y="192.5" width="20" height="20" as="geometry" />
        </mxCell>
      </root>
    </mxGraphModel>
  </diagram>
</mxfile>
